# xmcd CD database file
#
# Track frame offsets:
#	150
#	20625
#	42225
#	60397
#	76337
#	92357
#	111482
#	126567
#	145832
#	170057
#	190260
#	207897
#	226600
#	242620
#	257377
#	272487
#	294350
#	310775
#
# Disc length: 4410 seconds
#
# Revision: 0
# Processed by: cddbd v1.5.1PL2 Copyright (c) Steve Scherf et al.
# Submitted via: CDex 1.51
#
DISCID=f2113812
DTITLE=Various Artist - Kiss 〜BEST for lovers〜
DYEAR=2005
DGENRE=Pop
TTITLE0=オールウェイズ・ラヴ・ユー(ホイットニー・ヒューストン)
TTITLE1=パワー・オブ・ラヴ(セリーヌ・ディオン)
TTITLE2=ユア・ソング(エルトン・ジョン)
TTITLE3=愛のセレブレイション(ピーボ・ブライソン&ロバータ・フラック)
TTITLE4=アイ・ウォント・イット・ザット・ウェイ(バックストリート・ボーイズ)
TTITLE5=愛のハーモニー(ディオンヌ&フレンズ feat.エルトン・ジョン,グラディス・ナイト,スティーヴィー・ワンダー)
TTITLE6=ウィザウト・ユー(ニルソン)
TTITLE7=シーサイド・ラヴ(エア・サプライ)
TTITLE8=ゼア・マスト・ビー・アン・エンジェル(ユーリズミックス)
TTITLE9=オール・スルー・ザ・ナイト(シンディ・ローパー)
TTITLE10=ミス・ユー・ライク・クレイジー(ナタリー・コール)
TTITLE11=アイ・ライク・ショパン(ガゼボ)
TTITLE12=ロスト・イン・ユア・アイズ(デビー・ギブソン)
TTITLE13=素直になれなくて(アズ・イエット)
TTITLE14=トゥ・ビー・ウィズ・ユー(ウエストライフ)
TTITLE15=アイル・ストップ・ラヴィング・ユー(イン・シンク)
TTITLE16=サンキュー(ダイド)
TTITLE17=エンジェル(サラ・マクラクラン)
EXTD=YEAR: 2005
EXTT0=
EXTT1=
EXTT2=
EXTT3=
EXTT4=
EXTT5=
EXTT6=
EXTT7=
EXTT8=
EXTT9=
EXTT10=
EXTT11=
EXTT12=
EXTT13=
EXTT14=
EXTT15=
EXTT16=
EXTT17=
PLAYORDER=
